<svg width="14" height="14" viewBox="0 0 14 14" fill="none" xmlns="http://www.w3.org/2000/svg">
<g clip-path="url(#clip0_454_1343)">
<path d="M1.75 4.08333V2.91667C1.75 2.60725 1.87292 2.3105 2.09171 2.09171C2.3105 1.87292 2.60725 1.75 2.91667 1.75H4.08333" stroke="#71717A" stroke-width="2" stroke-linecap="round" stroke-linejoin="round"/>
<path d="M9.91663 1.75H11.0833C11.3927 1.75 11.6895 1.87292 11.9083 2.09171C12.127 2.3105 12.25 2.60725 12.25 2.91667V4.08333" stroke="#71717A" stroke-width="2" stroke-linecap="round" stroke-linejoin="round"/>
<path d="M12.25 9.91675V11.0834C12.25 11.3928 12.127 11.6896 11.9083 11.9084C11.6895 12.1272 11.3927 12.2501 11.0833 12.2501H9.91663" stroke="#71717A" stroke-width="2" stroke-linecap="round" stroke-linejoin="round"/>
<path d="M4.08333 12.2501H2.91667C2.60725 12.2501 2.3105 12.1272 2.09171 11.9084C1.87292 11.6896 1.75 11.3928 1.75 11.0834V9.91675" stroke="#71717A" stroke-width="2" stroke-linecap="round" stroke-linejoin="round"/>
</g>
<defs>
<clipPath id="clip0_454_1343">
<rect width="14" height="14" fill="white"/>
</clipPath>
</defs>
</svg>
