<svg width="14" height="14" viewBox="0 0 14 14" fill="none" xmlns="http://www.w3.org/2000/svg">
<g clip-path="url(#clip0_474_576)">
<path d="M8.75004 7L3.79171 11.9583C3.30754 12.4425 2.52588 12.4425 2.04171 11.9583C1.92671 11.8435 1.83548 11.7071 1.77324 11.5569C1.71099 11.4068 1.67896 11.2459 1.67896 11.0833C1.67896 10.9208 1.71099 10.7599 1.77324 10.6097C1.83548 10.4596 1.92671 10.3232 2.04171 10.2083L7.00004 5.25" stroke="#71717A" stroke-width="2" stroke-linecap="round" stroke-linejoin="round"/>
<path d="M10.29 8.75012L12.8334 6.20679" stroke="#71717A" stroke-width="2" stroke-linecap="round" stroke-linejoin="round"/>
<path d="M12.1975 6.8249L11.4683 6.09573C11.1183 5.74573 10.9258 5.27906 10.9258 4.78323V4.28156L9.33917 2.68323C9.03796 2.38025 8.67986 2.13977 8.28544 1.9756C7.89102 1.81143 7.46806 1.72679 7.04083 1.72656H5.25L5.78667 2.2049C6.16785 2.54287 6.47307 2.95781 6.68221 3.42234C6.89135 3.88687 6.99966 4.39045 7 4.8999V5.8099L8.16667 6.97656H9.6075L10.9258 8.09073" stroke="#71717A" stroke-width="2" stroke-linecap="round" stroke-linejoin="round"/>
</g>
<defs>
<clipPath id="clip0_474_576">
<rect width="14" height="14" fill="white"/>
</clipPath>
</defs>
</svg>
